<svg width="27" height="20" viewBox="0 0 27 20" fill="none" xmlns="http://www.w3.org/2000/svg">
<path d="M0 3.33333C0 2.44928 0.35119 1.60143 0.976311 0.976311C1.60143 0.351189 2.44928 0 3.33333 0H23.3333C24.2174 0 25.0652 0.351189 25.6904 0.976311C26.3155 1.60143 26.6667 2.44928 26.6667 3.33333V16.6667C26.6667 17.5507 26.3155 18.3986 25.6904 19.0237C25.0652 19.6488 24.2174 20 23.3333 20H3.33333C2.44928 20 1.60143 19.6488 0.976311 19.0237C0.35119 18.3986 0 17.5507 0 16.6667V3.33333ZM3.33333 1.66667C2.89131 1.66667 2.46738 1.84226 2.15482 2.15482C1.84226 2.46738 1.66667 2.89131 1.66667 3.33333V5H25V3.33333C25 2.89131 24.8244 2.46738 24.5118 2.15482C24.1993 1.84226 23.7754 1.66667 23.3333 1.66667H3.33333ZM25 8.33333H1.66667V16.6667C1.66667 17.1087 1.84226 17.5326 2.15482 17.8452C2.46738 18.1577 2.89131 18.3333 3.33333 18.3333H23.3333C23.7754 18.3333 24.1993 18.1577 24.5118 17.8452C24.8244 17.5326 25 17.1087 25 16.6667V8.33333Z" fill="#49505C"/>
<path d="M3.33203 13.3337C3.33203 12.8916 3.50763 12.4677 3.82019 12.1551C4.13275 11.8426 4.55667 11.667 4.9987 11.667H6.66536C7.10739 11.667 7.53131 11.8426 7.84388 12.1551C8.15644 12.4677 8.33203 12.8916 8.33203 13.3337V15.0003C8.33203 15.4424 8.15644 15.8663 7.84388 16.1788C7.53131 16.4914 7.10739 16.667 6.66536 16.667H4.9987C4.55667 16.667 4.13275 16.4914 3.82019 16.1788C3.50763 15.8663 3.33203 15.4424 3.33203 15.0003V13.3337Z" fill="#49505C"/>
</svg>
