<svg width="18" height="18" viewBox="0 0 18 18" fill="none" xmlns="http://www.w3.org/2000/svg">
<path d="M6.42003 15.3053C5.94753 15.3053 5.61003 15.2858 5.61003 15.2858V12.915H6.41478C7.30728 12.915 7.87728 13.1625 7.87728 13.9845C7.87728 14.682 7.63053 15.3045 6.42003 15.3045M6.44103 12.3307H4.95828V18H5.61078V15.9022H6.56703C7.90428 15.9022 8.54253 15.0802 8.54253 14.04C8.54253 12.9802 7.88928 12.3307 6.44253 12.3307M10.0283 15.4282H12.3255V14.8193H10.0283V12.9067H12.6893V12.3307H9.37578V17.8958H12.8003V17.3197H10.0283V15.4282ZM12.5063 14.8305V15.3953H13.473V16.7948C13.1768 17.235 12.384 17.235 12.384 17.235C11.7803 17.235 11.2935 17.0273 10.9388 16.6065C10.5863 16.188 10.4085 15.738 10.4085 15.0615C10.4085 14.3513 10.5848 13.8053 10.9418 13.3688C11.3033 12.9315 11.8043 12.69 12.4283 12.69C12.7485 12.69 13.0913 12.7883 13.4258 12.9938L13.8293 12.5422C13.4678 12.2452 13.0073 12.0975 12.4493 12.0975C11.6168 12.0975 10.9455 12.3682 10.4573 12.9075C9.96453 13.4437 9.71478 14.1585 9.71478 15.0315C9.71478 15.9045 9.94353 16.5638 10.3898 17.0903C10.833 17.6093 11.4548 17.8755 12.2198 17.8755C12.5648 17.8755 12.9188 17.8433 13.287 17.7277C13.5705 17.6377 13.668 17.5658 14.0933 17.5658V14.8305H12.5063ZM2.89278 12.3307H2.45478V12.9067H2.89278V15.585C2.89278 16.4108 2.91753 16.8945 2.63403 17.178C2.46105 17.3495 2.22882 17.448 1.98528 17.4533C0.963781 17.4533 0.926281 16.635 0.926281 16.635H0.300781C0.360781 18.0915 2.07228 17.9948 2.07228 17.9948C2.52753 17.97 2.88753 17.82 3.16878 17.538C3.54003 17.1637 3.54903 16.4715 3.54903 15.894V12.3315L2.89278 12.3307ZM13.0148 0H2.29803V10.7115H8.49753V6.20325H13.0148V0ZM13.5293 6.80025H17.439V10.7122H13.5293V6.80025Z" fill="#49505C"/>
</svg>
