<svg width="16" height="16" viewBox="0 0 16 16" fill="none" xmlns="http://www.w3.org/2000/svg">
<path d="M13.6 3.36842H11.2V2.52632C11.2 1.8563 10.9471 1.21372 10.4971 0.739941C10.047 0.266165 9.43652 0 8.8 0H7.2C6.56348 0 5.95303 0.266165 5.50294 0.739941C5.05286 1.21372 4.8 1.8563 4.8 2.52632V3.36842H2.4C1.76348 3.36842 1.15303 3.63459 0.702944 4.10836C0.252856 4.58214 0 5.22472 0 5.89474V13.4737C0 14.1437 0.252856 14.7863 0.702944 15.2601C1.15303 15.7338 1.76348 16 2.4 16H13.6C14.2365 16 14.847 15.7338 15.2971 15.2601C15.7471 14.7863 16 14.1437 16 13.4737V5.89474C16 5.22472 15.7471 4.58214 15.2971 4.10836C14.847 3.63459 14.2365 3.36842 13.6 3.36842ZM6.4 2.52632C6.4 2.30298 6.48429 2.08878 6.63432 1.93086C6.78434 1.77293 6.98783 1.68421 7.2 1.68421H8.8C9.01217 1.68421 9.21566 1.77293 9.36569 1.93086C9.51571 2.08878 9.6 2.30298 9.6 2.52632V3.36842H6.4V2.52632ZM14.4 13.4737C14.4 13.697 14.3157 13.9112 14.1657 14.0691C14.0157 14.2271 13.8122 14.3158 13.6 14.3158H2.4C2.18783 14.3158 1.98434 14.2271 1.83431 14.0691C1.68429 13.9112 1.6 13.697 1.6 13.4737V9.22105H4V10.1053C4 10.3286 4.08429 10.5428 4.23431 10.7007C4.38434 10.8586 4.58783 10.9474 4.8 10.9474C5.01217 10.9474 5.21566 10.8586 5.36569 10.7007C5.51571 10.5428 5.6 10.3286 5.6 10.1053V9.22105H10.4V10.1053C10.4 10.3286 10.4843 10.5428 10.6343 10.7007C10.7843 10.8586 10.9878 10.9474 11.2 10.9474C11.4122 10.9474 11.6157 10.8586 11.7657 10.7007C11.9157 10.5428 12 10.3286 12 10.1053V9.22105H14.4V13.4737ZM14.4 7.57895H1.6V5.89474C1.6 5.6714 1.68429 5.4572 1.83431 5.29928C1.98434 5.14135 2.18783 5.05263 2.4 5.05263H13.6C13.8122 5.05263 14.0157 5.14135 14.1657 5.29928C14.3157 5.4572 14.4 5.6714 14.4 5.89474V7.57895Z" fill="#495057"/>
</svg>
