<svg width="13" height="14" viewBox="0 0 13 14" fill="none" xmlns="http://www.w3.org/2000/svg">
<path d="M4.41071 1.75H8.58929V0.65625C8.58929 0.293945 8.89978 0 9.28571 0C9.67165 0 9.98214 0.293945 9.98214 0.65625V1.75H11.1429C12.1672 1.75 13 2.5334 13 3.5V12.25C13 13.2152 12.1672 14 11.1429 14H1.85714C0.831362 14 0 13.2152 0 12.25V3.5C0 2.5334 0.831362 1.75 1.85714 1.75H3.01786V0.65625C3.01786 0.293945 3.32835 0 3.71429 0C4.10022 0 4.41071 0.293945 4.41071 0.65625V1.75ZM1.39286 6.78125H3.71429V5.25H1.39286V6.78125ZM1.39286 8.09375V9.84375H3.71429V8.09375H1.39286ZM5.10714 8.09375V9.84375H7.89286V8.09375H5.10714ZM9.28571 8.09375V9.84375H11.6071V8.09375H9.28571ZM11.6071 5.25H9.28571V6.78125H11.6071V5.25ZM11.6071 11.1562H9.28571V12.6875H11.1429C11.3982 12.6875 11.6071 12.4906 11.6071 12.25V11.1562ZM7.89286 11.1562H5.10714V12.6875H7.89286V11.1562ZM3.71429 11.1562H1.39286V12.25C1.39286 12.4906 1.60062 12.6875 1.85714 12.6875H3.71429V11.1562ZM7.89286 5.25H5.10714V6.78125H7.89286V5.25Z" fill="#495057"/>
</svg>
