<svg width="16" height="16" viewBox="0 0 16 16" fill="none" xmlns="http://www.w3.org/2000/svg">
<path d="M6.24274 16C6.22585 15.9713 6.20536 15.9449 6.18177 15.9215L6.16635 15.9068L6.16705 15.9075C6.06258 15.8048 5.92428 15.7436 5.77802 15.7355C5.63176 15.7274 5.48755 15.7728 5.37234 15.8633L5.37024 15.8654L4.68205 15.177C4.77339 15.0619 4.81952 14.9173 4.81177 14.7705C4.80403 14.6237 4.74295 14.4848 4.64001 14.38C4.53553 14.2772 4.39724 14.2161 4.25098 14.208C4.10472 14.1998 3.9605 14.2453 3.8453 14.3358L3.8432 14.3379L3.15501 13.6495C3.24634 13.5343 3.29247 13.3898 3.28473 13.243C3.27698 13.0962 3.2159 12.9573 3.11296 12.8524C3.00849 12.7497 2.87019 12.6886 2.72393 12.6805C2.57767 12.6723 2.43346 12.7178 2.31825 12.8083L2.31615 12.8104L1.62796 12.122C1.71929 12.0068 1.76542 11.8623 1.75768 11.7155C1.74994 11.5687 1.68885 11.4298 1.58591 11.3249C1.48144 11.2222 1.34314 11.1611 1.19688 11.1529C1.05062 11.1448 0.90641 11.1903 0.791205 11.2808L0.789102 11.2829L0.100915 10.5945C0.192247 10.4793 0.238378 10.3348 0.230635 10.188C0.222892 10.0412 0.161807 9.9023 0.0588673 9.79741C0.0420481 9.78058 0.01752 9.77217 0 9.75535L9.75235 0C9.75936 0.0168244 9.77057 0.0343498 9.78529 0.0490711L9.7958 0.0588854L9.7951 0.0581844L9.79931 0.0623905C9.85385 0.117034 9.91863 0.160384 9.98994 0.189961C10.0612 0.219539 10.1377 0.234763 10.2149 0.234763C10.2921 0.234763 10.3685 0.219539 10.4398 0.189961C10.5111 0.160384 10.5759 0.117034 10.6305 0.0623905L10.6347 0.0581844C10.6515 0.04136 10.6515 0.0245356 10.6683 0.00771121L11.3572 0.69681C11.3407 0.701854 11.3257 0.711022 11.3137 0.723449L11.3067 0.73116C11.2488 0.793964 11.2044 0.868037 11.1763 0.948762C11.1482 1.02949 11.137 1.11513 11.1434 1.20037C11.1499 1.2856 11.1738 1.3686 11.2137 1.44418C11.2536 1.51976 11.3087 1.58631 11.3754 1.63968L11.3733 1.63757L11.3775 1.64178C11.4321 1.69642 11.4968 1.73977 11.5681 1.76935C11.6395 1.79893 11.7159 1.81415 11.7931 1.81415C11.8703 1.81415 11.9467 1.79893 12.018 1.76935C12.0893 1.73977 12.1541 1.69642 12.2087 1.64178L12.2129 1.63757C12.2297 1.62075 12.2297 1.60393 12.2465 1.5871L12.9347 2.2755C12.9182 2.28054 12.9032 2.28971 12.8912 2.30214L12.8842 2.30985C12.7729 2.42122 12.7104 2.57226 12.7104 2.72976C12.7104 2.88725 12.7729 3.0383 12.8842 3.14967C12.9956 3.26103 13.1466 3.3236 13.304 3.3236C13.4615 3.3236 13.6125 3.26103 13.7238 3.14967C13.7406 3.13284 13.7406 3.11602 13.7574 3.09919L14.4456 3.78759C14.4288 3.79273 14.4136 3.80215 14.4015 3.81493L14.3952 3.82194C14.34 3.87708 14.2963 3.94255 14.2665 4.0146C14.2366 4.08665 14.2213 4.16387 14.2213 4.24185C14.2213 4.31983 14.2366 4.39706 14.2665 4.4691C14.2963 4.54115 14.34 4.60662 14.3952 4.66176C14.4503 4.7169 14.5157 4.76064 14.5878 4.79049C14.6598 4.82033 14.737 4.83569 14.8149 4.83569C14.8929 4.83569 14.9701 4.82033 15.0421 4.79049C15.1142 4.76064 15.1796 4.7169 15.2347 4.66176C15.2515 4.64494 15.2515 4.62811 15.2684 4.61129L15.9565 5.29968C15.94 5.30473 15.9251 5.3139 15.9131 5.32632L15.9061 5.33403L15.9019 5.33824C15.8473 5.3928 15.8039 5.4576 15.7744 5.52893C15.7448 5.60026 15.7296 5.67672 15.7296 5.75394C15.7296 5.83116 15.7448 5.90762 15.7744 5.97896C15.8039 6.05029 15.8473 6.11508 15.9019 6.16965L15.9054 6.17315L15.9187 6.18717C15.943 6.21159 15.9703 6.23279 16 6.25026L15.9979 6.24886L6.24274 16ZM12.7322 8.36663L12.8163 8.45075C12.85 8.48226 12.8946 8.49944 12.9408 8.49865C12.9869 8.49786 13.031 8.47917 13.0636 8.44652C13.0963 8.41387 13.1149 8.36982 13.1157 8.32366C13.1165 8.2775 13.0993 8.23283 13.0678 8.19909L12.9823 8.11356C12.9486 8.08205 12.904 8.06488 12.8578 8.06567C12.8117 8.06646 12.7676 8.08515 12.735 8.1178C12.7024 8.15044 12.6837 8.1945 12.6829 8.24066C12.6821 8.28682 12.6993 8.33148 12.7308 8.36523L12.7322 8.36663ZM12.7238 5.034L14.201 6.51174C14.2348 6.54325 14.2794 6.56042 14.3256 6.55963C14.3717 6.55885 14.4158 6.54016 14.4484 6.50751C14.481 6.47486 14.4997 6.43081 14.5005 6.38465C14.5013 6.33849 14.4841 6.29382 14.4526 6.26008L12.9753 4.78233C12.9416 4.75082 12.897 4.73365 12.8508 4.73444C12.8047 4.73523 12.7606 4.75392 12.728 4.78657C12.6953 4.81921 12.6767 4.86327 12.6759 4.90943C12.6751 4.95559 12.6923 5.00026 12.7238 5.034ZM8.90298 2.30705L13.653 7.05854C13.6867 7.09005 13.7314 7.10722 13.7775 7.10643C13.8237 7.10564 13.8677 7.08695 13.9004 7.0543C13.933 7.02165 13.9517 6.9776 13.9525 6.93144C13.9533 6.88528 13.9361 6.84061 13.9046 6.80687L9.15457 2.05538C9.12084 2.02387 9.07619 2.0067 9.03004 2.00749C8.98389 2.00828 8.93985 2.02697 8.90721 2.05961C8.87458 2.09226 8.85589 2.13631 8.8551 2.18247C8.85431 2.22864 8.87148 2.2733 8.90298 2.30705ZM10.4055 9.68665H10.6073C10.6551 9.6828 10.7 9.66207 10.7339 9.62816C10.7678 9.59425 10.7885 9.54938 10.7923 9.50158V9.50228C10.7907 9.47893 10.7843 9.45616 10.7737 9.43534C10.763 9.41451 10.7482 9.39608 10.7302 9.38114C10.7121 9.3662 10.6913 9.35507 10.6688 9.34842C10.6464 9.34177 10.6229 9.33974 10.5996 9.34245H9.10551C9.08231 9.34207 9.05927 9.34636 9.03775 9.35507C9.01624 9.36378 8.9967 9.37672 8.98029 9.39314C8.96388 9.40955 8.95094 9.4291 8.94223 9.45062C8.93352 9.47214 8.92923 9.49519 8.92961 9.5184C8.92708 9.54718 8.93295 9.57607 8.94651 9.60158C8.96007 9.62709 8.98073 9.64812 9.006 9.66211L9.0053 9.66141L7.25119 11.4161C7.23668 11.3915 7.21562 11.3715 7.19037 11.3582C7.16511 11.345 7.13667 11.339 7.10823 11.341C7.08494 11.3405 7.06178 11.3446 7.04014 11.3533C7.0185 11.3619 6.99883 11.3748 6.98233 11.3913C6.96582 11.4077 6.95282 11.4273 6.94411 11.4489C6.93539 11.4705 6.93115 11.4937 6.93163 11.517L6.93093 13.0109C6.93055 13.0341 6.93484 13.0571 6.94354 13.0786C6.95225 13.1002 6.96519 13.1197 6.9816 13.1361C6.99801 13.1525 7.01756 13.1655 7.03907 13.1742C7.06058 13.1829 7.08362 13.1872 7.10683 13.1868C7.15461 13.183 7.19947 13.1622 7.23337 13.1283C7.26727 13.0944 7.288 13.0496 7.29184 13.0018V13.0025V12.8006L10.4055 9.68665ZM12.1428 7.78058L12.2269 7.8647C12.2606 7.89621 12.3053 7.91339 12.3514 7.9126C12.3976 7.91181 12.4416 7.89312 12.4742 7.86047C12.5069 7.82782 12.5256 7.78377 12.5263 7.73761C12.5271 7.69145 12.51 7.64678 12.4785 7.61304L12.3944 7.52892C12.3606 7.49741 12.316 7.48023 12.2698 7.48102C12.2237 7.48181 12.1797 7.5005 12.147 7.53315C12.1144 7.5658 12.0957 7.60985 12.0949 7.65601C12.0941 7.70217 12.1113 7.74684 12.1428 7.78058ZM11.5555 7.19313L11.6396 7.27725C11.6733 7.30876 11.718 7.32593 11.7641 7.32514C11.8103 7.32436 11.8543 7.30567 11.887 7.27302C11.9196 7.24037 11.9383 7.19632 11.9391 7.15016C11.9399 7.104 11.9227 7.05933 11.8912 7.02559L11.8071 6.94146C11.7734 6.90995 11.7287 6.89278 11.6826 6.89357C11.6364 6.89436 11.5924 6.91305 11.5597 6.9457C11.5271 6.97835 11.5084 7.0224 11.5076 7.06856C11.5068 7.11472 11.524 7.15939 11.5555 7.19313ZM10.9682 6.60568L11.0523 6.6898C11.0861 6.72131 11.1307 6.73848 11.1769 6.73769C11.223 6.7369 11.2671 6.71821 11.2997 6.68557C11.3323 6.65292 11.351 6.60887 11.3518 6.56271C11.3526 6.51654 11.3354 6.47188 11.3039 6.43814L11.2191 6.35331C11.1854 6.3218 11.1407 6.30463 11.0946 6.30542C11.0484 6.30621 11.0044 6.3249 10.9718 6.35755C10.9391 6.39019 10.9205 6.43424 10.9197 6.48041C10.9189 6.52657 10.936 6.57123 10.9675 6.60498L10.9682 6.60568ZM4.01069 7.82264L4.03592 7.84788C3.86784 8.07699 3.78724 8.35869 3.80871 8.64206C3.83017 8.92542 3.95228 9.19176 4.15295 9.39292L5.8587 11.0992C5.99012 11.2306 6.16834 11.3044 6.35417 11.3044C6.53999 11.3044 6.71821 11.2306 6.84963 11.0992L8.61215 9.33614C8.74353 9.20468 8.81733 9.0264 8.81733 8.84052C8.81733 8.65463 8.74353 8.47636 8.61215 8.3449L6.9064 6.63863C6.70619 6.43841 6.44115 6.3162 6.15893 6.29397C5.8767 6.27174 5.5958 6.35094 5.36674 6.51735L5.36113 6.52156L5.3359 6.49632C5.30201 6.46397 5.25696 6.44591 5.21011 6.44591C5.16326 6.44591 5.11821 6.46397 5.08431 6.49632L4.01069 7.57028C3.97834 7.60418 3.9603 7.64924 3.9603 7.69611C3.9603 7.74297 3.97834 7.78804 4.01069 7.82194V7.82264ZM10.3789 6.02033L10.463 6.10445C10.4967 6.13596 10.5414 6.15313 10.5875 6.15234C10.6336 6.15155 10.6777 6.13286 10.7103 6.10022C10.743 6.06757 10.7616 6.02352 10.7624 5.97736C10.7632 5.9312 10.7461 5.88653 10.7146 5.85279L10.6298 5.76796C10.596 5.73645 10.5514 5.71928 10.5052 5.72007C10.4591 5.72086 10.415 5.73955 10.3824 5.7722C10.3498 5.80484 10.3311 5.84889 10.3303 5.89506C10.3295 5.94122 10.3467 5.98588 10.3782 6.01963L10.3789 6.02033ZM9.7916 5.43288L9.87499 5.5163C9.90873 5.54781 9.95338 5.56498 9.99953 5.56419C10.0457 5.5634 10.0897 5.54471 10.1223 5.51206C10.155 5.47942 10.1737 5.43537 10.1745 5.38921C10.1752 5.34304 10.1581 5.29838 10.1266 5.26463L10.0432 5.18121C10.0095 5.1497 9.9648 5.13253 9.91865 5.13332C9.8725 5.13411 9.82847 5.1528 9.79583 5.18545C9.76319 5.21809 9.74451 5.26214 9.74372 5.30831C9.74293 5.35447 9.7601 5.39913 9.7916 5.43288ZM9.20363 4.84472L9.28772 4.92885C9.32146 4.96036 9.36611 4.97753 9.41226 4.97674C9.4584 4.97595 9.50244 4.95726 9.53508 4.92461C9.56771 4.89197 9.5864 4.84792 9.58719 4.80175C9.58798 4.75559 9.57081 4.71093 9.53931 4.67718L9.45521 4.59306C9.42148 4.56155 9.37683 4.54438 9.33068 4.54517C9.28453 4.54596 9.24049 4.56465 9.20786 4.59729C9.17522 4.62994 9.15654 4.67399 9.15575 4.72015C9.15496 4.76632 9.17212 4.81098 9.20363 4.84472ZM10.3782 2.74588L10.7979 3.16579C10.8317 3.1973 10.8763 3.21447 10.9225 3.21368C10.9686 3.21289 11.0127 3.1942 11.0453 3.16156C11.0779 3.12891 11.0966 3.08486 11.0974 3.0387C11.0982 2.99253 11.081 2.94787 11.0495 2.91413L10.6298 2.49422C10.596 2.46271 10.5514 2.44553 10.5052 2.44632C10.4591 2.44711 10.415 2.4658 10.3824 2.49845C10.3498 2.5311 10.3311 2.57515 10.3303 2.62131C10.3295 2.66747 10.3467 2.71214 10.3782 2.74588ZM8.61635 4.25727L8.70045 4.34139C8.73418 4.37291 8.77884 4.39008 8.82498 4.38929C8.87113 4.3885 8.91517 4.36981 8.94781 4.33716C8.98044 4.30451 8.99913 4.26046 8.99992 4.2143C9.00071 4.16814 8.98354 4.12347 8.95204 4.08973L8.86794 4.00561C8.83421 3.9741 8.78956 3.95693 8.74341 3.95772C8.69726 3.95851 8.65322 3.9772 8.62059 4.00984C8.58795 4.04249 8.56927 4.08654 8.56848 4.1327C8.56769 4.17886 8.58485 4.22353 8.61635 4.25727ZM9.46362 1.83106L9.8813 2.24886C9.91503 2.28037 9.95969 2.29754 10.0058 2.29675C10.052 2.29596 10.096 2.27727 10.1287 2.24463C10.1613 2.21198 10.18 2.16793 10.1808 2.12177C10.1816 2.0756 10.1644 2.03094 10.1329 1.9972L9.71521 1.57939C9.68148 1.54788 9.63683 1.53071 9.59068 1.5315C9.54453 1.53229 9.50049 1.55098 9.46786 1.58362C9.43522 1.61627 9.41654 1.66032 9.41575 1.70648C9.41496 1.75265 9.43212 1.79731 9.46362 1.83106ZM8.02908 3.66912L8.11318 3.75324C8.14691 3.78475 8.19156 3.80192 8.23771 3.80113C8.28386 3.80034 8.3279 3.78166 8.36053 3.74901C8.39317 3.71636 8.41185 3.67231 8.41264 3.62615C8.41343 3.57999 8.39627 3.53532 8.36477 3.50158L8.27997 3.41675C8.24623 3.38524 8.20158 3.36807 8.15544 3.36886C8.10929 3.36965 8.06525 3.38834 8.03261 3.42099C7.99998 3.45363 7.98129 3.49769 7.9805 3.54385C7.97971 3.59001 7.99688 3.63467 8.02838 3.66842L8.02908 3.66912ZM7.44111 3.08167L7.52521 3.16579C7.55894 3.1973 7.60359 3.21447 7.64974 3.21368C7.69589 3.21289 7.73992 3.1942 7.77256 3.16156C7.8052 3.12891 7.82388 3.08486 7.82467 3.0387C7.82546 2.99253 7.8083 2.94787 7.77679 2.91413L7.692 2.8293C7.65826 2.79779 7.61361 2.78062 7.56746 2.78141C7.52132 2.7822 7.47728 2.80089 7.44464 2.83354C7.412 2.86618 7.39332 2.91023 7.39253 2.9564C7.39174 3.00256 7.40891 3.04722 7.44041 3.08097L7.44111 3.08167ZM7.29254 12.2972L7.28413 11.8689L9.47414 9.67823L9.90233 9.68665L7.29254 12.2972ZM6.59524 10.8447C6.53051 10.9091 6.44297 10.9452 6.35171 10.9452C6.26046 10.9452 6.17291 10.9091 6.10819 10.8447L5.32819 10.0645L7.57777 7.81423L8.35776 8.59446C8.42208 8.65921 8.45818 8.74679 8.45818 8.83807C8.45818 8.92935 8.42208 9.01692 8.35776 9.08167L6.59524 10.8447ZM7.18251 9.30039C7.25884 9.37682 7.35611 9.4289 7.46203 9.45003C7.56794 9.47115 7.67775 9.46038 7.77754 9.41906C7.87733 9.37775 7.96263 9.30776 8.02265 9.21794C8.08267 9.12812 8.1147 9.02251 8.1147 8.91448C8.1147 8.80644 8.08267 8.70083 8.02265 8.61101C7.96263 8.5212 7.87733 8.4512 7.77754 8.40989C7.67775 8.36858 7.56794 8.3578 7.46203 8.37893C7.35611 8.40005 7.25884 8.45213 7.18251 8.52857C7.08179 8.63176 7.02541 8.77026 7.02541 8.91448C7.02541 9.0587 7.08179 9.1972 7.18251 9.30039ZM6.02479 10.4592L6.02549 10.4599C6.07601 10.5105 6.13603 10.5508 6.20211 10.5782C6.26819 10.6056 6.33904 10.6197 6.41058 10.6197C6.48213 10.6197 6.55297 10.6056 6.61905 10.5782C6.68513 10.5508 6.74515 10.5105 6.79567 10.4599L6.79637 10.4592C7.00591 10.2447 7.00591 9.90186 6.79637 9.68735C6.58683 9.47284 6.79567 9.68665 6.79567 9.68665C6.74515 9.63597 6.68513 9.59576 6.61905 9.56832C6.55297 9.54089 6.48213 9.52676 6.41058 9.52676C6.33904 9.52676 6.26819 9.54089 6.20211 9.56832C6.13603 9.59576 6.07601 9.63597 6.02549 9.68665L6.02479 9.68735C5.92407 9.79054 5.86769 9.92904 5.86769 10.0733C5.86769 10.2175 5.92407 10.356 6.02479 10.4592ZM7.42639 9.04031C7.40001 9.01367 7.38209 8.97982 7.3749 8.94301C7.36772 8.90621 7.37158 8.8681 7.386 8.83349C7.40043 8.79888 7.42477 8.76931 7.45597 8.74851C7.48716 8.72771 7.52381 8.71662 7.5613 8.71662C7.59879 8.71662 7.63544 8.72771 7.66663 8.74851C7.69782 8.76931 7.72217 8.79888 7.73659 8.83349C7.75102 8.8681 7.75488 8.90621 7.74769 8.94301C7.7405 8.97982 7.72259 9.01367 7.6962 9.04031L7.6941 9.04241C7.65891 9.07743 7.61129 9.09708 7.56165 9.09708C7.51201 9.09708 7.46439 9.07743 7.4292 9.04241L7.42709 9.04031H7.42639ZM6.26797 10.1984C6.24124 10.1717 6.22302 10.1378 6.21562 10.1008C6.20821 10.0638 6.21194 10.0254 6.22635 9.99051C6.24076 9.95563 6.26519 9.92581 6.29655 9.90483C6.32791 9.88385 6.36479 9.87265 6.40252 9.87265C6.44025 9.87265 6.47713 9.88385 6.50849 9.90483C6.53985 9.92581 6.56429 9.95563 6.57869 9.99051C6.5931 10.0254 6.59684 10.0638 6.58943 10.1008C6.58202 10.1378 6.5638 10.1717 6.53708 10.1984L6.53497 10.2005C6.49978 10.2355 6.45216 10.2552 6.40252 10.2552C6.35288 10.2552 6.30526 10.2355 6.27007 10.2005L6.26797 10.1984ZM5.07591 9.81283L4.40454 9.14126L4.40033 9.13705C4.32367 9.06037 4.26285 8.96933 4.22136 8.86913C4.17987 8.76894 4.15852 8.66155 4.15852 8.5531C4.15852 8.44465 4.17987 8.33726 4.22136 8.23707C4.26285 8.13688 4.32367 8.04584 4.40033 7.96916L4.40384 7.96565L5.47746 6.89169L5.48167 6.88749C5.80404 6.56502 6.32684 6.56502 6.6492 6.88749L6.65271 6.89099L7.32408 7.56257L5.07591 9.81283Z" fill="#49505C"/>
</svg>
