<svg width="19" height="25" viewBox="0 0 19 25" fill="none" xmlns="http://www.w3.org/2000/svg">
<path d="M18.2083 4.5H15.0417V2C15.0417 0.896875 14.3316 0 13.4583 0H5.54167C4.66836 0 3.95833 0.896875 3.95833 2V4.5H0.791667C0.353776 4.5 0 4.94688 0 5.5V6.5C0 6.6375 0.0890625 6.75 0.197917 6.75H1.69219L2.30326 23.0938C2.34284 24.1594 3.04049 25 3.88411 25H15.1159C15.962 25 16.6572 24.1625 16.6967 23.0938L17.3078 6.75H18.8021C18.9109 6.75 19 6.6375 19 6.5V5.5C19 4.94688 18.6462 4.5 18.2083 4.5ZM13.2604 4.5H5.73958V2.25H13.2604V4.5Z" fill="#49505C"/>
</svg>
