<svg width="18" height="18" viewBox="0 0 18 18" fill="none" xmlns="http://www.w3.org/2000/svg">
<path d="M5.4375 1.62H5.25C5.35313 1.62 5.4375 1.539 5.4375 1.44V1.62H12.5625V1.44C12.5625 1.539 12.6469 1.62 12.75 1.62H12.5625V3.24H14.25V1.44C14.25 0.64575 13.5773 0 12.75 0L5.25 0C4.42266 0 3.75 0.64575 3.75 1.44V3.24H5.4375V1.62ZM17.25 3.24H0.75C0.335156 3.24 0 3.56175 0 3.96L0 4.68C0 4.779 0.084375 4.86 0.1875 4.86H1.60312L2.18203 16.6275C2.21953 17.3948 2.88047 18 3.67969 18H14.3203C15.1219 18 15.7805 17.397 15.818 16.6275L16.3969 4.86H17.8125C17.9156 4.86 18 4.779 18 4.68V3.96C18 3.56175 17.6648 3.24 17.25 3.24ZM14.1398 16.38H3.86016L3.29297 4.86H14.707L14.1398 16.38Z" fill="#495057"/>
</svg>
