<svg width="21" height="18" viewBox="0 0 21 18" fill="none" xmlns="http://www.w3.org/2000/svg">
<path d="M0 2.76923C0 2.03479 0.276562 1.33042 0.768845 0.811089C1.26113 0.291757 1.92881 0 2.625 0H18.375C19.0712 0 19.7389 0.291757 20.2312 0.811089C20.7234 1.33042 21 2.03479 21 2.76923V12.4615C21 13.196 20.7234 13.9003 20.2312 14.4197C19.7389 14.939 19.0712 15.2308 18.375 15.2308H2.625C1.92881 15.2308 1.26113 14.939 0.768845 14.4197C0.276562 13.9003 0 13.196 0 12.4615V2.76923ZM2.625 1.38462C2.2769 1.38462 1.94306 1.53049 1.69692 1.79016C1.45078 2.04983 1.3125 2.40201 1.3125 2.76923V12.4615C1.3125 12.8288 1.45078 13.1809 1.69692 13.4406C1.94306 13.7003 2.2769 13.8462 2.625 13.8462H18.375C18.7231 13.8462 19.0569 13.7003 19.3031 13.4406C19.5492 13.1809 19.6875 12.8288 19.6875 12.4615V2.76923C19.6875 2.40201 19.5492 2.04983 19.3031 1.79016C19.0569 1.53049 18.7231 1.38462 18.375 1.38462H2.625ZM3.9375 17.3077C3.9375 17.1241 4.00664 16.948 4.12971 16.8182C4.25278 16.6883 4.4197 16.6154 4.59375 16.6154H16.4062C16.5803 16.6154 16.7472 16.6883 16.8703 16.8182C16.9934 16.948 17.0625 17.1241 17.0625 17.3077C17.0625 17.4913 16.9934 17.6674 16.8703 17.7972C16.7472 17.9271 16.5803 18 16.4062 18H4.59375C4.4197 18 4.25278 17.9271 4.12971 17.7972C4.00664 17.6674 3.9375 17.4913 3.9375 17.3077Z" fill="#333333"/>
</svg>


