<svg width="18" height="18" viewBox="0 0 18 18" fill="none" xmlns="http://www.w3.org/2000/svg">
<path d="M1.04339 16.954L1.04645 16.957C1.12755 17.0387 1.22401 17.1036 1.33027 17.1479C1.43653 17.1922 1.5505 17.215 1.66562 17.2151C1.76249 17.2151 1.85869 17.1991 1.95039 17.1679L6.94278 15.4743L16.5229 5.89423C17.1085 5.30853 17.4375 4.51416 17.4375 3.68588C17.4374 2.8576 17.1084 2.06326 16.5227 1.47761C15.937 0.89195 15.1426 0.562952 14.3143 0.562988C13.486 0.563025 12.6917 0.892092 12.106 1.4778L2.52596 11.0579L0.832558 16.0501C0.779216 16.2054 0.770701 16.3725 0.807991 16.5324C0.845281 16.6922 0.926865 16.8383 1.04339 16.954ZM12.9016 2.27328C13.2768 1.90095 13.7842 1.69247 14.3128 1.69348C14.8414 1.6945 15.348 1.90493 15.7218 2.27869C16.0955 2.65246 16.306 3.15911 16.307 3.68769C16.308 4.21627 16.0995 4.72371 15.7271 5.09889L14.4673 6.35868L11.6417 3.53307L12.9016 2.27328ZM3.50718 11.6677L10.8463 4.32855L13.6719 7.15416L6.33275 14.4932L2.05656 15.9439L3.50718 11.6677Z" fill="black"/>
</svg>
