<svg width="12" height="14" viewBox="0 0 12 14" fill="none" xmlns="http://www.w3.org/2000/svg">
<path d="M0.854766 6.43V5.26H8.14477L7.78477 6.43H0.854766ZM0.854766 9.148V7.978H7.42477L7.06477 9.148H0.854766ZM7.15477 0.94C7.88677 0.94 8.52877 1.048 9.08077 1.264C9.63277 1.468 10.1008 1.78 10.4848 2.2C10.8808 2.608 11.1868 3.112 11.4028 3.712L10.1068 4.324C9.90277 3.64 9.56077 3.118 9.08077 2.758C8.61277 2.386 8.01277 2.2 7.28077 2.2C6.56077 2.2 5.93077 2.398 5.39077 2.794C4.85077 3.178 4.42477 3.736 4.11277 4.468C3.81277 5.188 3.66277 6.052 3.66277 7.06C3.66277 8.548 3.96877 9.73 4.58077 10.606C5.19277 11.482 6.09277 11.92 7.28077 11.92C8.03677 11.92 8.67277 11.716 9.18877 11.308C9.71677 10.888 10.0888 10.276 10.3048 9.472L11.6188 9.958C11.4028 10.63 11.0848 11.212 10.6648 11.704C10.2568 12.184 9.75877 12.55 9.17077 12.802C8.59477 13.054 7.94677 13.18 7.22677 13.18C6.15877 13.18 5.25277 12.934 4.50877 12.442C3.76477 11.938 3.19477 11.23 2.79877 10.318C2.41477 9.406 2.22277 8.32 2.22277 7.06C2.22277 5.8 2.43277 4.714 2.85277 3.802C3.27277 2.89 3.84877 2.188 4.58077 1.696C5.32477 1.192 6.18277 0.94 7.15477 0.94Z" fill="#9B9C9D"/>
</svg>
