<svg width="76" height="57" viewBox="0 0 76 57" fill="none" xmlns="http://www.w3.org/2000/svg">
<path d="M28.5195 16.625C28.5195 18.5147 27.7689 20.3269 26.4327 21.6631C25.0965 22.9993 23.2842 23.75 21.3945 23.75C19.5049 23.75 17.6926 22.9993 16.3564 21.6631C15.0202 20.3269 14.2695 18.5147 14.2695 16.625C14.2695 14.7353 15.0202 12.9231 16.3564 11.5869C17.6926 10.2507 19.5049 9.5 21.3945 9.5C23.2842 9.5 25.0965 10.2507 26.4327 11.5869C27.7689 12.9231 28.5195 14.7353 28.5195 16.625Z" fill="white"/>
<path d="M7.125 0C5.23533 0 3.42306 0.750668 2.08686 2.08686C0.750667 3.42306 0 5.23533 0 7.125L0 49.875C0 51.7647 0.750667 53.5769 2.08686 54.9131C3.42306 56.2493 5.23533 57 7.125 57H68.875C70.7647 57 72.5769 56.2493 73.9131 54.9131C75.2493 53.5769 76 51.7647 76 49.875V7.125C76 5.23533 75.2493 3.42306 73.9131 2.08686C72.5769 0.750668 70.7647 0 68.875 0H7.125ZM68.875 4.75C69.5049 4.75 70.109 5.00022 70.5544 5.44562C70.9998 5.89102 71.25 6.49511 71.25 7.125V35.625L53.3188 26.3767C52.8733 26.1536 52.369 26.0762 51.8771 26.1555C51.3853 26.2348 50.9308 26.4667 50.578 26.8185L32.9555 44.441L20.3205 36.024C19.8643 35.7203 19.3171 35.5837 18.7717 35.6374C18.2263 35.691 17.7162 35.9317 17.328 36.3185L4.7595 47.5V50.065C4.75382 50.0018 4.75065 49.9384 4.75 49.875V7.125C4.75 6.49511 5.00022 5.89102 5.44562 5.44562C5.89102 5.00022 6.49511 4.75 7.125 4.75H68.875Z" fill="white"/>
</svg>
