<svg width="13" height="13" viewBox="0 0 13 13" fill="none" xmlns="http://www.w3.org/2000/svg">
<path d="M6.5 12.1875C9.64112 12.1875 12.1875 9.64112 12.1875 6.5C12.1875 3.35888 9.64112 0.8125 6.5 0.8125C3.35888 0.8125 0.8125 3.35888 0.8125 6.5C0.8125 9.64112 3.35888 12.1875 6.5 12.1875Z" fill="#2196F3"/>
<path d="M5.95703 5.9585H7.04036V8.93766H5.95703V5.9585Z" fill="white"/>
<path d="M6.5013 5.14567C6.87524 5.14567 7.17839 4.84253 7.17839 4.46859C7.17839 4.09464 6.87524 3.7915 6.5013 3.7915C6.12736 3.7915 5.82422 4.09464 5.82422 4.46859C5.82422 4.84253 6.12736 5.14567 6.5013 5.14567Z" fill="white"/>
</svg>
