<svg width="19" height="18" viewBox="0 0 19 18" fill="none" xmlns="http://www.w3.org/2000/svg">
<path d="M4.71741 7.00459H4.1731C3.4303 6.96976 2.6899 7.13339 1.99787 7.48532C1.30583 7.83726 0.676916 8.37 0.150156 9.05048L0 9.2778V16H2.55266V12.1843L2.89677 11.6809L3.05318 11.4455C3.86773 10.3596 4.88182 9.56056 6 9.12355C5.44016 8.57078 4.99863 7.84133 4.71741 7.00459Z" fill="#979797"/>
<path d="M18.8705 9.04311C18.3513 8.36508 17.7315 7.83425 17.0494 7.48358C16.3673 7.13291 15.6376 6.96987 14.9054 7.00458C14.6809 7.00541 14.4566 7.02161 14.2333 7.05311C13.9509 7.83528 13.5276 8.5155 13 9.03502C14.1766 9.46202 15.2424 10.3009 16.0832 11.4618L16.2374 11.6883L16.5704 12.1899V16H19V9.26961L18.8705 9.04311Z" fill="#979797"/>
<path d="M3.72366 4.97555H3.93C3.83412 4.21959 3.97856 3.4543 4.34588 2.77206C4.7132 2.08982 5.28768 1.5198 6 1.13081C5.74179 0.768551 5.38556 0.474087 4.9662 0.276251C4.54684 0.0784144 4.07871 -0.0160121 3.60767 0.00221725C3.13663 0.0204466 2.67882 0.150707 2.27906 0.380243C1.87931 0.60978 1.55132 0.930722 1.32722 1.31164C1.10311 1.69257 0.990572 2.12041 1.00062 2.55327C1.01066 2.98614 1.14295 3.40918 1.38453 3.78099C1.6261 4.1528 1.96868 4.46062 2.37872 4.6743C2.78876 4.88799 3.2522 5.00022 3.72366 5V4.97555Z" fill="#979797"/>
<path d="M14.9468 4.54736C14.9548 4.68794 14.9548 4.82883 14.9468 4.96942C15.073 4.98802 15.2005 4.99825 15.3283 5H15.4532C15.9171 4.977 16.3666 4.84269 16.758 4.61016C17.1495 4.37763 17.4695 4.0548 17.687 3.67309C17.9044 3.29138 18.0119 2.86381 17.999 2.432C17.986 2.00019 17.853 1.57886 17.613 1.20902C17.373 0.839184 17.0341 0.533447 16.6294 0.321576C16.2246 0.109706 15.7677 -0.00107877 15.3032 7.91809e-06C14.8388 0.00109461 14.3825 0.114016 13.9789 0.327778C13.5752 0.54154 13.238 0.848858 13 1.21981C13.5953 1.58128 14.0848 2.07452 14.4245 2.65529C14.7643 3.23606 14.9438 3.88619 14.9468 4.54736Z" fill="#979797"/>
<path d="M9.5 8C11.433 8 13 6.433 13 4.5C13 2.567 11.433 1 9.5 1C7.567 1 6 2.567 6 4.5C6 6.433 7.567 8 9.5 8Z" fill="#979797"/>
<path d="M9.51123 10.0066C8.53332 9.96776 7.55753 10.124 6.64257 10.4658C5.72762 10.8076 4.89241 11.328 4.1872 11.9957L4 12.202V16.8653C4.00292 17.0172 4.03623 17.167 4.09803 17.3062C4.15983 17.4455 4.2489 17.5714 4.36016 17.6767C4.47142 17.7821 4.60268 17.8648 4.74646 17.9203C4.89023 17.9757 5.0437 18.0027 5.19809 17.9998H13.8019C13.9563 18.0027 14.1098 17.9757 14.2535 17.9203C14.3973 17.8648 14.5286 17.7821 14.6398 17.6767C14.7511 17.5714 14.8402 17.4455 14.902 17.3062C14.9638 17.167 14.9971 17.0172 15 16.8653V12.2167L14.8203 11.9957C14.1196 11.326 13.2873 10.8041 12.3744 10.4621C11.4615 10.12 10.4872 9.96504 9.51123 10.0066Z" fill="#C4C4C4"/>
</svg>
