<svg width="9" height="19" viewBox="0 0 9 19" fill="none" xmlns="http://www.w3.org/2000/svg">
<path d="M6 19H3C2.60218 19 2.22064 18.8619 1.93934 18.6162C1.65804 18.3705 1.5 18.0372 1.5 17.6897V13.1034C1.10218 13.1034 0.720645 12.9654 0.43934 12.7197C0.158036 12.4739 0 12.1406 0 11.7931V7.86207C0 7.34078 0.237053 6.84085 0.659009 6.47224C1.08097 6.10363 1.65326 5.89655 2.25 5.89655H6.75C7.34674 5.89655 7.91903 6.10363 8.34099 6.47224C8.76295 6.84085 9 7.34078 9 7.86207V11.7931C9 12.1406 8.84196 12.4739 8.56066 12.7197C8.27935 12.9654 7.89782 13.1034 7.5 13.1034V17.6897C7.5 18.0372 7.34196 18.3705 7.06066 18.6162C6.77936 18.8619 6.39782 19 6 19ZM2.25 7.2069C2.14979 7.20111 2.04933 7.21408 1.95533 7.24496C1.86133 7.27584 1.77596 7.3239 1.70495 7.38594C1.63394 7.44797 1.57892 7.52254 1.54357 7.60465C1.50823 7.68677 1.49337 7.77453 1.5 7.86207V11.7931H3V17.6897H6V11.7931H7.5V7.86207C7.50663 7.77453 7.49177 7.68677 7.45643 7.60465C7.42108 7.52254 7.36606 7.44797 7.29505 7.38594C7.22404 7.3239 7.13867 7.27584 7.04467 7.24496C6.95067 7.21408 6.85021 7.20111 6.75 7.2069H2.25ZM4.5 5.24138C3.90666 5.24138 3.32664 5.08768 2.83329 4.79971C2.33994 4.51175 1.95542 4.10245 1.72836 3.62359C1.5013 3.14472 1.44189 2.61778 1.55764 2.10942C1.6734 1.60106 1.95912 1.13409 2.37868 0.767583C2.79824 0.401073 3.33279 0.151477 3.91473 0.050357C4.49667 -0.0507629 5.09987 0.00113551 5.64805 0.199489C6.19623 0.397843 6.66476 0.733743 6.99441 1.16471C7.32405 1.59568 7.5 2.10237 7.5 2.62069C7.5 3.31574 7.18393 3.98232 6.62132 4.4738C6.05871 4.96527 5.29565 5.24138 4.5 5.24138ZM4.5 1.31035C4.20333 1.31035 3.91332 1.3872 3.66664 1.53118C3.41997 1.67516 3.22771 1.87981 3.11418 2.11924C3.00065 2.35868 2.97094 2.62214 3.02882 2.87633C3.0867 3.13051 3.22956 3.36399 3.43934 3.54724C3.64912 3.7305 3.91639 3.8553 4.20736 3.90586C4.49834 3.95642 4.79994 3.93047 5.07403 3.83129C5.34811 3.73211 5.58238 3.56416 5.7472 3.34868C5.91203 3.13319 6 2.87985 6 2.62069C6 2.27317 5.84196 1.93987 5.56066 1.69414C5.27936 1.4484 4.89782 1.31035 4.5 1.31035Z" fill="#495057"/>
</svg>
