<svg width="10" height="9" viewBox="0 0 10 9" fill="none" xmlns="http://www.w3.org/2000/svg">
<path d="M5.376 4.016L6.784 5.2L8.24 7.056L6.192 8.544L4.88 6.576L4.192 4.896L4.784 4.464L5.376 4.016ZM4.192 4.016L4.784 4.464L5.376 4.896L4.688 6.576L3.376 8.544L1.328 7.056L2.8 5.2L4.192 4.016ZM1.248 1.968L3.456 2.8L5.008 3.76L4.784 4.464L4.56 5.152L2.736 5.024L0.464 4.384L1.248 1.968ZM6.048 0.32L5.952 2.672L5.52 4.464H4.784H4.048L3.616 2.672L3.52 0.32H6.048ZM8.336 1.968L9.12 4.384L6.832 5.024L5.008 5.152L4.784 4.464L4.56 3.76L6.112 2.8L8.336 1.968Z" fill="#49505C"/>
</svg>
