<svg width="15" height="15" viewBox="0 0 15 15" fill="none" xmlns="http://www.w3.org/2000/svg">
<path d="M14.375 2.7H11.875V1.2C11.875 0.538125 11.3145 0 10.625 0H4.375C3.68555 0 3.125 0.538125 3.125 1.2V2.7H0.625C0.279297 2.7 0 2.96813 0 3.3V3.9C0 3.9825 0.0703125 4.05 0.15625 4.05H1.33594L1.81836 13.8563C1.84961 14.4956 2.40039 15 3.06641 15H11.9336C12.6016 15 13.1504 14.4975 13.1816 13.8563L13.6641 4.05H14.8438C14.9297 4.05 15 3.9825 15 3.9V3.3C15 2.96813 14.7207 2.7 14.375 2.7ZM10.4688 2.7H4.53125V1.35H10.4688V2.7Z" fill="#C4C4C4"/>
</svg>
