<svg width="12" height="13" viewBox="0 0 12 13" fill="none" xmlns="http://www.w3.org/2000/svg">
<path d="M12 12.4858H11.1429V10.343C11.1422 9.77487 10.9162 9.23022 10.5145 8.82851C10.1128 8.42679 9.56811 8.20081 9 8.20013V7.34298C9.79537 7.34389 10.5579 7.66025 11.1203 8.22266C11.6827 8.78508 11.9991 9.54761 12 10.343V12.4858ZM8.57143 12.4858H7.71429V10.343C7.71361 9.77487 7.48762 9.23022 7.08591 8.82851C6.68419 8.42679 6.13954 8.20081 5.57143 8.20013H3C2.43189 8.20081 1.88724 8.42679 1.48552 8.82851C1.08381 9.23022 0.857823 9.77487 0.857143 10.343V12.4858H0V10.343C0.000907441 9.54761 0.317269 8.78508 0.879682 8.22266C1.44209 7.66025 2.20463 7.34389 3 7.34298H5.57143C6.3668 7.34389 7.12933 7.66025 7.69175 8.22266C8.25416 8.78508 8.57052 9.54761 8.57143 10.343V12.4858ZM7.71429 0.48584V1.34298C8.28261 1.34298 8.82765 1.56875 9.22952 1.97061C9.63138 2.37247 9.85714 2.91752 9.85714 3.48584C9.85714 4.05416 9.63138 4.59921 9.22952 5.00107C8.82765 5.40293 8.28261 5.6287 7.71429 5.6287V6.48584C8.50994 6.48584 9.273 6.16977 9.83561 5.60716C10.3982 5.04455 10.7143 4.28149 10.7143 3.48584C10.7143 2.69019 10.3982 1.92713 9.83561 1.36452C9.273 0.80191 8.50994 0.48584 7.71429 0.48584ZM4.28571 1.34298C4.70953 1.34298 5.12383 1.46866 5.47622 1.70412C5.82861 1.93958 6.10327 2.27425 6.26546 2.6658C6.42764 3.05736 6.47008 3.48822 6.3874 3.90389C6.30471 4.31956 6.10063 4.70138 5.80094 5.00107C5.50126 5.30075 5.11944 5.50484 4.70376 5.58752C4.28809 5.67021 3.85723 5.62777 3.46568 5.46558C3.07412 5.30339 2.73945 5.02874 2.50399 4.67635C2.26853 4.32396 2.14286 3.90966 2.14286 3.48584C2.14286 2.91752 2.36862 2.37247 2.77049 1.97061C3.17235 1.56875 3.71739 1.34298 4.28571 1.34298ZM4.28571 0.48584C3.69237 0.48584 3.11235 0.661787 2.619 0.991431C2.12566 1.32108 1.74114 1.78961 1.51408 2.33779C1.28701 2.88597 1.2276 3.48917 1.34336 4.07111C1.45911 4.65305 1.74484 5.1876 2.16439 5.60716C2.58395 6.02672 3.1185 6.31244 3.70044 6.4282C4.28239 6.54395 4.88559 6.48454 5.43376 6.25748C5.98194 6.03042 6.45048 5.6459 6.78012 5.15255C7.10977 4.6592 7.28571 4.07918 7.28571 3.48584C7.28571 2.69019 6.96964 1.92713 6.40703 1.36452C5.84443 0.80191 5.08136 0.48584 4.28571 0.48584Z" fill="#495057"/>
</svg>
