<svg width="19" height="19" viewBox="0 0 19 19" fill="none" xmlns="http://www.w3.org/2000/svg">
<path d="M9.4987 1.58301C7.93293 1.58301 6.40233 2.04731 5.10044 2.91721C3.79855 3.7871 2.78385 5.02352 2.18466 6.4701C1.58546 7.91668 1.42869 9.50846 1.73415 11.0441C2.03962 12.5798 2.79361 13.9904 3.90077 15.0976C5.00794 16.2048 6.41855 16.9588 7.95424 17.2642C9.48992 17.5697 11.0817 17.4129 12.5283 16.8137C13.9749 16.2145 15.2113 15.1998 16.0812 13.8979C16.9511 12.5961 17.4154 11.0654 17.4154 9.49967C17.4154 8.46004 17.2106 7.43059 16.8127 6.4701C16.4149 5.5096 15.8318 4.63688 15.0966 3.90175C14.3615 3.16662 13.4888 2.58348 12.5283 2.18563C11.5678 1.78778 10.5383 1.58301 9.4987 1.58301ZM12.6654 10.2913H9.4987C9.28874 10.2913 9.08737 10.2079 8.93891 10.0595C8.79044 9.911 8.70703 9.70964 8.70703 9.49967V6.33301C8.70703 6.12304 8.79044 5.92168 8.93891 5.77322C9.08737 5.62475 9.28874 5.54134 9.4987 5.54134C9.70866 5.54134 9.91003 5.62475 10.0585 5.77322C10.207 5.92168 10.2904 6.12304 10.2904 6.33301V8.70801H12.6654C12.8753 8.70801 13.0767 8.79142 13.2252 8.93988C13.3736 9.08835 13.457 9.28971 13.457 9.49967C13.457 9.70964 13.3736 9.911 13.2252 10.0595C13.0767 10.2079 12.8753 10.2913 12.6654 10.2913Z" fill="#49505C"/>
</svg>
