<svg width="25" height="26" viewBox="0 0 25 26" fill="none" xmlns="http://www.w3.org/2000/svg">
<path d="M0.30545 1.85151C0.20861 1.75079 0.131793 1.63123 0.079384 1.49964C0.0269748 1.36805 1.02037e-09 1.22702 0 1.08459C-1.02037e-09 0.942158 0.0269748 0.801122 0.079384 0.669534C0.131793 0.537946 0.20861 0.418381 0.30545 0.317668C0.40229 0.216955 0.517255 0.137065 0.643783 0.0825594C0.77031 0.0280538 0.905921 -1.06119e-09 1.04287 0C1.17982 1.06119e-09 1.31544 0.0280538 1.44196 0.0825594C1.56849 0.137065 1.68346 0.216955 1.7803 0.317668L12.5 11.4683L23.2197 0.317668C23.3165 0.216955 23.4315 0.137065 23.558 0.0825594C23.6846 0.0280538 23.8202 0 23.9571 0C24.0941 0 24.2297 0.0280538 24.3562 0.0825594C24.4827 0.137065 24.5977 0.216955 24.6945 0.317668C24.7914 0.418381 24.8682 0.537946 24.9206 0.669534C24.973 0.801122 25 0.942158 25 1.08459C25 1.22702 24.973 1.36805 24.9206 1.49964C24.8682 1.63123 24.7914 1.75079 24.6945 1.85151L13.9728 13L24.6945 24.1485C24.7914 24.2492 24.8682 24.3688 24.9206 24.5004C24.973 24.6319 25 24.773 25 24.9154C25 25.0578 24.973 25.1989 24.9206 25.3305C24.8682 25.4621 24.7914 25.5816 24.6945 25.6823C24.5977 25.783 24.4827 25.8629 24.3562 25.9174C24.2297 25.9719 24.0941 26 23.9571 26C23.8202 26 23.6846 25.9719 23.558 25.9174C23.4315 25.8629 23.3165 25.783 23.2197 25.6823L12.5 14.5317L1.7803 25.6823C1.68346 25.783 1.56849 25.8629 1.44196 25.9174C1.31544 25.9719 1.17982 26 1.04287 26C0.905921 26 0.77031 25.9719 0.643783 25.9174C0.517255 25.8629 0.40229 25.783 0.30545 25.6823C0.20861 25.5816 0.131793 25.4621 0.079384 25.3305C0.0269748 25.1989 0 25.0578 0 24.9154C0 24.773 0.0269748 24.6319 0.079384 24.5004C0.131793 24.3688 0.20861 24.2492 0.30545 24.1485L11.0272 13L0.30545 1.85151Z" fill="#333333"/>
</svg>
