<svg width="150" height="141" viewBox="0 0 150 141" fill="none" xmlns="http://www.w3.org/2000/svg">
<g filter="url(#filter0_d_2770_1763)">
<path d="M108.602 81.9121L84.1826 41.0803C83.1952 39.5228 81.8347 38.2411 80.2267 37.3532C78.6187 36.4654 76.8148 36 74.9815 36C73.1481 36 71.3443 36.4654 69.7362 37.3532C68.1282 38.2411 66.7678 39.5228 65.7803 41.0803L41.3608 81.9121C40.4981 83.362 40.0293 85.0152 40.0013 86.7057C39.9734 88.3962 40.3873 90.0643 41.2016 91.5423C42.143 93.2059 43.5055 94.5878 45.1501 95.5466C46.7947 96.5053 48.6622 97.0067 50.5619 96.9994H99.4011C101.288 97.0197 103.147 96.5377 104.791 95.6021C106.434 94.6666 107.804 93.3105 108.761 91.6707C109.6 90.1773 110.027 88.4853 109.999 86.7696C109.971 85.0539 109.489 83.3769 108.602 81.9121ZM74.9815 84.1592C74.3518 84.1592 73.7362 83.9709 73.2127 83.6182C72.6891 83.2655 72.281 82.7641 72.04 82.1776C71.7991 81.591 71.736 80.9456 71.8589 80.3229C71.9817 79.7002 72.2849 79.1282 72.7302 78.6793C73.1755 78.2303 73.7428 77.9246 74.3603 77.8008C74.9779 77.6769 75.6181 77.7405 76.1999 77.9834C76.7816 78.2264 77.2788 78.6378 77.6287 79.1657C77.9785 79.6936 78.1652 80.3142 78.1652 80.9491C78.1652 81.8005 77.8298 82.617 77.2327 83.219C76.6357 83.821 75.8259 84.1592 74.9815 84.1592ZM78.1652 71.319C78.1652 72.1703 77.8298 72.9868 77.2327 73.5888C76.6357 74.1908 75.8259 74.529 74.9815 74.529C74.1371 74.529 73.3273 74.1908 72.7302 73.5888C72.1331 72.9868 71.7977 72.1703 71.7977 71.319V58.4788C71.7977 57.6274 72.1331 56.8109 72.7302 56.2089C73.3273 55.6069 74.1371 55.2687 74.9815 55.2687C75.8259 55.2687 76.6357 55.6069 77.2327 56.2089C77.8298 56.8109 78.1652 57.6274 78.1652 58.4788V71.319Z" fill="#5CA96C"/>
</g>
<defs>
<filter id="filter0_d_2770_1763" x="0" y="0" width="150" height="141" filterUnits="userSpaceOnUse" color-interpolation-filters="sRGB">
<feFlood flood-opacity="0" result="BackgroundImageFix"/>
<feColorMatrix in="SourceAlpha" type="matrix" values="0 0 0 0 0 0 0 0 0 0 0 0 0 0 0 0 0 0 127 0" result="hardAlpha"/>
<feOffset dy="4"/>
<feGaussianBlur stdDeviation="20"/>
<feComposite in2="hardAlpha" operator="out"/>
<feColorMatrix type="matrix" values="0 0 0 0 0.768627 0 0 0 0 0.768627 0 0 0 0 0.768627 0 0 0 1 0"/>
<feBlend mode="normal" in2="BackgroundImageFix" result="effect1_dropShadow_2770_1763"/>
<feBlend mode="normal" in="SourceGraphic" in2="effect1_dropShadow_2770_1763" result="shape"/>
</filter>
</defs>
</svg>
