<svg width="207" height="52" viewBox="0 0 207 52" fill="none" xmlns="http://www.w3.org/2000/svg">
<path d="M60.2717 40.2824H53.9121V13.5942H65.135C72.035 13.5942 76.0253 16.8051 76.0253 22.5598C76.0253 28.3144 72.035 31.567 65.135 31.567H60.2717V40.2824ZM64.8856 26.4379C68.3772 26.4379 69.8319 25.1452 69.8319 22.6432C69.8319 20.1412 68.3772 18.8067 64.8856 18.8067H60.2717V26.4796L64.8856 26.4379Z" fill="#495057"/>
<path d="M91.2372 40.7826C83.5059 40.7826 77.6035 35.1531 77.6035 26.9383C77.6035 18.7234 83.5059 13.0938 91.2372 13.0938C99.0101 13.0938 104.912 18.7234 104.912 26.9383C104.912 35.1531 99.0101 40.7826 91.2372 40.7826ZM91.2372 18.7234C86.9143 18.7234 84.1709 21.976 84.1709 26.9383C84.1709 31.9005 86.9143 35.1531 91.2372 35.1531C95.6017 35.1531 98.345 31.9005 98.345 26.9383C98.3034 21.976 95.56 18.7234 91.2372 18.7234Z" fill="#495057"/>
<path d="M125.032 40.2824C124.491 39.5734 124.159 37.822 123.951 34.9864C123.743 31.984 122.372 31.0249 119.711 31.0249H114.308V40.2824H108.031V13.5942H120.875C127.776 13.5942 131.143 16.8051 131.143 21.9343C131.143 25.8541 128.649 28.3144 125.406 28.773C128.232 29.3152 129.853 30.9832 130.145 34.1107C130.519 38.0305 130.644 39.3232 131.558 40.2824H125.032ZM119.878 26.0626C123.203 26.0626 124.865 25.1034 124.865 22.4763C124.865 20.0994 123.203 18.8067 119.878 18.8067H114.349V26.1043L119.878 26.0626Z" fill="#495057"/>
<path d="M142.198 40.2824V18.8902H132.971V13.5942H157.91V18.8902H148.558V40.2824H142.198Z" fill="#495057"/>
<path d="M173.332 13.5942L184.056 40.2824H177.197L174.91 34.5277H164.186L161.942 40.2824H155.541L166.182 13.5942H173.332ZM166.057 29.6905H173.082L169.673 20.9334H169.507L166.057 29.6905Z" fill="#495057"/>
<path d="M192.702 13.5942V34.9864H206.211V40.2824H186.301V13.5942H192.702Z" fill="#495057"/>
<path d="M5.81928 10.0079L43.1458 20.016L27.3506 4.16992L5.77771 9.96624L0 31.6085L15.9199 47.5797L12.5531 34.9863L5.81928 10.0079Z" fill="url(#paint0_linear_2154_978)"/>
<path d="M25.0229 38.3642L15.9199 47.58L37.3681 41.6585L43.1458 20.0161L25.0229 38.3642Z" fill="url(#paint1_linear_2154_978)"/>
<path d="M12.5521 34.9861L25.022 38.3639L43.1448 20.0158L5.81836 10.0078L12.5521 34.9861Z" fill="url(#paint2_linear_2154_978)"/>
<path d="M12.5521 34.9861L25.022 38.3639L43.1448 20.0158L5.81836 10.0078L12.5521 34.9861Z" fill="url(#paint3_linear_2154_978)"/>
<path d="M12.5527 34.9863L15.9196 47.5797L25.0226 38.364L12.5527 34.9863Z" fill="url(#paint4_linear_2154_978)"/>
<path d="M12.5527 34.9863L15.9196 47.5797L25.0226 38.364L12.5527 34.9863Z" fill="url(#paint5_linear_2154_978)"/>
<defs>
<linearGradient id="paint0_linear_2154_978" x1="-21.066" y1="25.8748" x2="43.1458" y2="25.8748" gradientUnits="userSpaceOnUse">
<stop stop-color="#69DB7C"/>
<stop offset="1" stop-color="#2B8A3E"/>
</linearGradient>
<linearGradient id="paint1_linear_2154_978" x1="15.9199" y1="33.7981" x2="98.4643" y2="33.7981" gradientUnits="userSpaceOnUse">
<stop stop-color="#69DB7C"/>
<stop offset="1" stop-color="#2B8A3E"/>
</linearGradient>
<linearGradient id="paint2_linear_2154_978" x1="39.6637" y1="39.3542" x2="7.97178" y2="7.76406" gradientUnits="userSpaceOnUse">
<stop stop-color="#83C282"/>
<stop offset="1" stop-color="#4AAF4F"/>
</linearGradient>
<linearGradient id="paint3_linear_2154_978" x1="31.8908" y1="31.5564" x2="8.03846" y2="7.78056" gradientUnits="userSpaceOnUse">
<stop offset="0.000311118" stop-color="#69DB7C"/>
<stop offset="1" stop-color="#2B8A3E"/>
</linearGradient>
<linearGradient id="paint4_linear_2154_978" x1="28.2647" y1="50.7906" x2="4.49576" y2="27.0979" gradientUnits="userSpaceOnUse">
<stop stop-color="#83C282"/>
<stop offset="1" stop-color="#4AAF4F"/>
</linearGradient>
<linearGradient id="paint5_linear_2154_978" x1="20.4918" y1="42.9927" x2="-3.36054" y2="19.217" gradientUnits="userSpaceOnUse">
<stop stop-color="#69DB7C"/>
<stop offset="0.9997" stop-color="#2B8A3E"/>
</linearGradient>
</defs>
</svg>
