<svg width="314" height="67" viewBox="0 0 314 67" fill="none" xmlns="http://www.w3.org/2000/svg">
<g clip-path="url(#clip0)">
<path d="M91.5604 55.664H80.8213V14.1719H98.4144C109.274 14.1719 115.502 19.3189 115.502 28.2868C115.502 37.2988 109.274 42.4648 98.4144 42.4648H91.5604V55.664ZM81.8952 54.5904H90.4865V41.3912H98.4144C108.591 41.3912 114.428 36.6168 114.428 28.2868C114.428 19.8747 108.743 15.2455 98.4144 15.2455H81.8952V54.5904ZM90.4865 34.7664V22.0661H98.0354C103.455 22.0661 106.09 24.1439 106.09 28.4131C106.09 32.6381 103.455 34.6969 98.0354 34.6969L90.4865 34.7664ZM91.5604 23.1397V33.6801L98.0354 33.6233C102.862 33.6233 105.016 32.0192 105.016 28.4131C105.016 24.7691 102.862 23.1397 98.0354 23.1397H91.5604Z" fill="black"/>
<path d="M138.086 56.4219C125.767 56.4219 116.829 47.3782 116.829 34.918C116.829 22.4577 125.767 13.4141 138.086 13.4141C150.442 13.4141 159.406 22.4577 159.406 34.918C159.406 47.3782 150.442 56.4219 138.086 56.4219ZM138.086 14.4877C126.393 14.4877 117.903 23.0766 117.903 34.918C117.903 46.753 126.393 55.3483 138.086 55.3483C149.817 55.3483 158.332 46.7593 158.332 34.918C158.332 23.0829 149.817 14.4877 138.086 14.4877ZM138.086 47.8961C131.238 47.8961 126.81 42.7996 126.81 34.918C126.81 27.0364 131.238 21.9398 138.086 21.9398C144.908 21.9398 149.362 27.03 149.425 34.9117C149.425 42.8059 144.978 47.8961 138.086 47.8961ZM138.086 23.0135C131.889 23.0135 127.884 27.6869 127.884 34.918C127.884 42.1491 131.889 46.8225 138.086 46.8225C144.321 46.8225 148.351 42.1491 148.351 34.918C148.294 27.6932 144.264 23.0135 138.086 23.0135Z" fill="black"/>
<path d="M200.619 55.664H189.178L189.014 55.4556C188.142 54.3125 187.599 51.7548 187.264 47.1509C186.986 43.1406 185.382 41.6502 181.358 41.6502H173.683V55.6704H163.07V14.1782H183.127C193.537 14.1782 199.267 18.8516 199.267 27.3458C199.267 32.4108 196.55 36.2947 192.185 37.7473C195.54 39.0103 197.372 41.6439 197.751 45.7362C198.3 51.5022 198.49 53.441 199.753 54.7609L200.619 55.664ZM189.728 54.5904H198.281C197.372 53.0621 197.157 50.8012 196.683 45.831C196.273 41.4418 194.125 39.0293 189.918 38.2209L186.74 37.6146L189.943 37.1663C194.959 36.4589 198.199 32.6002 198.199 27.3395C198.199 19.54 192.849 15.2455 183.133 15.2455H164.15V54.5904H172.615V40.5702H181.364C185.938 40.5702 188.029 42.5154 188.345 47.0688C188.629 51.0475 189.09 53.5168 189.728 54.5904ZM172.672 34.198V22.0661H181.611C188.319 22.0661 189.728 25.3817 189.728 28.1605C189.728 33.4528 185.388 34.1285 181.611 34.1285L172.672 34.198ZM173.746 23.1398V33.1118L181.611 33.0549C186.614 33.0549 188.654 31.634 188.654 28.1605C188.654 24.826 186.285 23.1398 181.611 23.1398H173.746Z" fill="black"/>
<path d="M225.736 55.664H214.997V23.266H200.973V14.1719H239.949V23.266H225.736V55.664ZM216.071 54.5904H224.662V22.1924H238.875V15.2455H202.047V22.1924H216.071V54.5904Z" fill="black"/>
<path d="M279.943 55.664H268.357L264.883 46.9488H249.318L245.906 55.664H235.016L251.617 14.1719H263.209L279.943 55.664ZM269.09 54.5904H278.351L262.489 15.2455H252.35L236.608 54.5904H245.174L248.585 45.8751H265.616L269.09 54.5904ZM263.259 39.6229H251.004L256.671 25.287H257.656L263.259 39.6229ZM252.584 38.5493H261.68L257.157 26.9732L252.584 38.5493Z" fill="black"/>
<path d="M313.354 55.664H282.021V14.1719H292.823V46.5698H313.354V55.664ZM283.095 54.5904H312.28V47.6435H291.749V15.2455H283.095V54.5904Z" fill="black"/>
<path d="M24.82 67.0002C24.6558 67.0002 24.4979 66.937 24.3778 66.817L0.183327 42.6291C0.0253993 42.4712 -0.0377718 42.2375 0.0190822 42.0228L8.79986 9.2459C8.85672 9.03117 9.02728 8.86066 9.24206 8.80382L42.0278 0.0254243C42.2426 -0.0314143 42.4764 0.0317397 42.6343 0.189625L66.6393 24.1881C66.8414 24.3902 66.8793 24.6997 66.7404 24.946C66.6014 25.1923 66.3108 25.3123 66.0329 25.2365L10.3602 10.3574L20.3096 47.1383L25.4265 66.2107C25.5023 66.4823 25.3823 66.7728 25.1359 66.9181C25.0348 66.9686 24.9274 67.0002 24.82 67.0002ZM1.32672 41.9975L23.6135 64.2782L19.1031 47.4667L9.43789 11.7342L1.32672 41.9975ZM11.7436 9.42904L64.0998 23.4176L42.0089 1.3264L11.7436 9.42904Z" fill="#69DB7C"/>
<path d="M24.82 66.9999C24.5989 66.9999 24.3904 66.8863 24.2767 66.6905C24.1314 66.4442 24.1757 66.1347 24.3715 65.9326L38.206 51.9756L38.6481 52.4177L38.206 51.9756L65.7485 24.1879C65.9507 23.9858 66.2602 23.9416 66.5066 24.0869C66.753 24.2258 66.873 24.5163 66.7972 24.7942L58.0164 57.5711C57.9595 57.7858 57.789 57.9563 57.5742 58.0131L24.9779 66.981C24.9337 66.9873 24.8769 66.9999 24.82 66.9999ZM64.9842 26.7393L26.9236 65.1432L56.9109 56.8953L64.9842 26.7393Z" fill="#69DB7C"/>
<path d="M24.8199 66.9999C24.7693 66.9999 24.7125 66.9936 24.6619 66.981C24.4472 66.9241 24.2766 66.7536 24.2197 66.5389L19.1029 47.4664L8.86918 9.63721C8.81232 9.42249 8.86918 9.18882 9.02711 9.03093C9.18503 8.87305 9.41877 8.80989 9.63355 8.86673L66.3612 24.0237C66.576 24.0805 66.7465 24.251 66.8034 24.4658C66.8602 24.6805 66.8034 24.9141 66.6454 25.072L25.2684 66.8105C25.1484 66.9305 24.9841 66.9999 24.8199 66.9999ZM10.36 10.3572L20.3095 47.138L25.142 65.1558L64.9904 24.952L10.36 10.3572Z" fill="#69DB7C"/>
</g>
<defs>
<clipPath id="clip0">
<rect width="313.354" height="67" fill="white"/>
</clipPath>
</defs>
</svg>
